<svg width="14" height="18" viewBox="0 0 14 18" fill="none" xmlns="http://www.w3.org/2000/svg">
<path d="M11.5938 13.7881V9.83691C11.5938 8.90723 11.4502 8.11426 10.6846 7.3418L6.80176 3.46582C6.03613 2.7002 5.26367 2.48145 4.30664 2.48145H3.31543V2.0918C3.31543 0.724609 4.04688 0 5.43457 0H9.07812V4.04004C9.07812 4.75098 9.48145 5.1543 10.1992 5.1543H13.9795V11.6416C13.9795 13.0635 13.2617 13.7881 11.8604 13.7881H11.5938ZM10.3291 4.2998C10.0488 4.2998 9.94629 4.18359 9.94629 3.90332L9.93945 0.280273C10.1514 0.307617 10.3496 0.458008 10.582 0.704102L13.4736 3.65039C13.7129 3.88965 13.8633 4.08105 13.8975 4.2998H10.3291ZM2.11914 17.1992C0.704102 17.1992 0 16.4814 0 15.0527V5.55762C0 4.12891 0.710938 3.41113 2.11914 3.41113H4.60059V8.36035C4.60059 9.23535 5.01074 9.65234 5.89258 9.65234H10.6641V15.0527C10.6641 16.4746 9.95996 17.1992 8.54492 17.1992H2.11914ZM5.88574 8.71582C5.65332 8.71582 5.53027 8.59961 5.53027 8.36719V3.58203C5.79688 3.65723 6.05664 3.8623 6.35742 4.16992L10.0078 7.88867C10.3154 8.20312 10.4727 8.44922 10.541 8.71582H5.88574Z" fill="white"/>
</svg>
