<svg width="14" height="12" viewBox="0 0 14 12" fill="none" xmlns="http://www.w3.org/2000/svg">
<path opacity="0.7" d="M3.69141 6.20361L1.92627 6.09375L4.38721 8.34229L6.02783 10.0122C6.14502 10.1221 6.21094 10.2979 6.21094 10.4736C6.21094 10.8398 5.92529 11.1035 5.56641 11.1035C5.39062 11.1035 5.23682 11.0376 5.09033 10.8984L0.227051 6.04248C0.0805664 5.90332 0 5.73486 0 5.55176C0 5.36865 0.0805664 5.2002 0.227051 5.06104L5.07568 0.219727C5.23682 0.0585938 5.39062 0 5.56641 0C5.92529 0 6.21094 0.263672 6.21094 0.629883C6.21094 0.805664 6.14502 0.974121 6.02783 1.09131L4.38721 2.76123L1.92627 5.00977L3.69141 4.8999H12.9565C13.3374 4.8999 13.6011 5.1709 13.6011 5.55176C13.6011 5.93262 13.3374 6.20361 12.9565 6.20361H3.69141Z" fill="white"/>
</svg>
