<svg width="17" height="19" viewBox="0 0 17 19" fill="none" xmlns="http://www.w3.org/2000/svg">
<path d="M1.96875 17.2441C0.685547 17.2441 0 16.541 0 15.1523V9.09668C0 7.875 0.527344 7.18945 1.53809 7.04004V4.91309C1.53809 1.6084 3.69141 0 5.99414 0C8.29688 0 10.459 1.6084 10.459 4.91309V7.04004C11.2852 7.16309 11.7949 7.66406 11.9443 8.5166V8.77148C8.85938 8.80664 6.32812 11.3555 6.32812 14.4404C6.32812 15.46 6.60938 16.418 7.0752 17.2441H1.96875ZM2.93555 4.71973V7.01367H9.07031V4.71973C9.07031 2.50488 7.6377 1.32715 5.99414 1.32715C4.35059 1.32715 2.93555 2.50488 2.93555 4.71973ZM11.9971 18.9053C9.55371 18.9053 7.53223 16.9014 7.53223 14.4404C7.53223 11.9971 9.55371 9.97559 11.9971 9.97559C14.4492 9.97559 16.4619 11.9883 16.4619 14.4404C16.4619 16.8838 14.4141 18.9053 11.9971 18.9053ZM9.91406 15.126H12.041C12.3486 15.126 12.5859 14.8887 12.5859 14.5811V11.8477C12.5859 11.5488 12.3398 11.3203 12.041 11.3203C11.7422 11.3203 11.4961 11.5488 11.4961 11.8477V14.0449H9.91406C9.61523 14.0449 9.36035 14.291 9.36035 14.5811C9.36035 14.8799 9.60645 15.126 9.91406 15.126Z" fill="white"/>
</svg>
