<svg width="35" height="40" viewBox="0 0 35 40" fill="none" xmlns="http://www.w3.org/2000/svg">
<path d="M4.15625 36.4043C1.44727 36.4043 0 34.9199 0 31.9883V19.2041C0 16.625 1.11328 15.1777 3.24707 14.8623V10.3721C3.24707 3.39551 7.79297 0 12.6543 0C17.5156 0 22.0801 3.39551 22.0801 10.3721V14.8623C23.8242 15.1221 24.9004 16.1797 25.2158 17.9795V18.5176C18.7031 18.5918 13.3594 23.9727 13.3594 30.4854C13.3594 32.6377 13.9531 34.6602 14.9365 36.4043H4.15625ZM6.19727 9.96387V14.8066H19.1484V9.96387C19.1484 5.28809 16.124 2.80176 12.6543 2.80176C9.18457 2.80176 6.19727 5.28809 6.19727 9.96387ZM25.3271 39.9111C20.1689 39.9111 15.9014 35.6807 15.9014 30.4854C15.9014 25.3271 20.1689 21.0596 25.3271 21.0596C30.5039 21.0596 34.7529 25.3086 34.7529 30.4854C34.7529 35.6436 30.4297 39.9111 25.3271 39.9111ZM20.9297 31.9326H25.4199C26.0693 31.9326 26.5703 31.4316 26.5703 30.7822V25.0117C26.5703 24.3809 26.0508 23.8984 25.4199 23.8984C24.7891 23.8984 24.2695 24.3809 24.2695 25.0117V29.6504H20.9297C20.2988 29.6504 19.7607 30.1699 19.7607 30.7822C19.7607 31.4131 20.2803 31.9326 20.9297 31.9326Z" fill="#FBAC35"/>
</svg>
